<?xml version="1.0" standalone="no"?>
<!DOCTYPE svg PUBLIC "-//W3C//DTD SVG 20010904//EN"
 "http://www.w3.org/TR/2001/REC-SVG-20010904/DTD/svg10.dtd">
<svg version="1.0" xmlns="http://www.w3.org/2000/svg"
 width="795.000000pt" height="1080.000000pt" viewBox="0 0 795.000000 1080.000000"
 preserveAspectRatio="xMidYMid meet">

<g transform="translate(0.000000,1080.000000) scale(0.100000,-0.100000)"
fill="#000000" stroke="none">
<path d="M0 5400 l0 -5400 3975 0 3975 0 0 5400 0 5400 -3975 0 -3975 0 0
-5400z m4320 2836 c170 -34 291 -76 446 -152 291 -142 539 -360 721 -634 51
-76 107 -179 101 -185 -8 -9 -266 -25 -483 -31 -373 -10 -347 -21 121 -49 392
-24 414 -26 423 -44 5 -9 25 -63 45 -121 43 -126 73 -272 82 -397 l7 -93 -24
-1 c-13 -1 -40 -3 -59 -4 -19 -2 -138 -8 -265 -14 -126 -6 -255 -14 -285 -18
-62 -9 -101 -5 340 -32 107 -7 206 -14 220 -15 14 -2 36 -4 49 -5 l24 -1 -6
-124 c-4 -68 -11 -143 -17 -167 -6 -24 -19 -82 -30 -128 -10 -46 -23 -87 -27
-91 -6 -6 -571 -32 -675 -31 -14 0 -38 -18 -26 -19 2 0 75 -5 163 -10 317 -18
505 -34 505 -43 0 -14 -61 -155 -93 -216 -38 -73 -169 -271 -194 -293 -17 -16
-57 -19 -314 -28 -162 -6 -406 -13 -544 -16 l-250 -6 -19 43 c-25 55 -136 164
-215 211 -34 20 -89 44 -122 55 -32 10 -59 24 -59 31 0 24 83 136 149 203 95
94 248 198 328 223 18 6 22 4 17 -8 -4 -9 0 -18 10 -22 9 -3 13 -11 9 -17 -4
-6 -6 -33 -5 -59 0 -26 -3 -50 -9 -53 -12 -8 -2 -25 16 -25 7 0 33 18 56 40
33 31 46 37 56 28 8 -6 11 -18 8 -26 -3 -8 4 -24 15 -34 18 -17 19 -22 8 -36
-11 -13 -11 -15 3 -10 9 4 21 2 27 -4 17 -17 55 78 49 119 -8 44 18 53 41 13
12 -21 22 -28 35 -24 12 4 24 -1 33 -15 15 -21 54 -29 54 -11 0 18 -24 65 -53
103 -27 35 -28 37 -8 37 12 0 30 -5 41 -12 10 -7 23 -9 27 -5 13 13 -11 39
-61 66 l-48 26 36 3 c83 7 2 50 -96 51 l-56 1 5 58 c4 49 1 61 -20 86 -23 29
-54 29 -43 1 2 -7 -2 -16 -9 -19 -8 -3 -12 -12 -9 -20 12 -31 -16 -24 -56 14
-61 57 -144 103 -172 94 -22 -6 -22 -7 5 -26 15 -11 24 -24 21 -30 -4 -6 4
-19 17 -29 38 -28 15 -34 -53 -13 -67 20 -181 26 -186 9 -1 -5 10 -12 25 -13
15 -2 33 -12 40 -22 7 -10 28 -20 46 -22 48 -5 39 -23 -13 -26 -84 -4 -113
-12 -101 -26 6 -7 22 -11 36 -8 15 2 25 0 25 -7 0 -6 11 -11 25 -11 15 0 40
-7 56 -16 17 -8 37 -13 44 -10 8 3 19 -2 25 -10 7 -8 19 -14 26 -14 22 0 16
-20 -8 -29 -141 -54 -298 -154 -403 -257 -41 -41 -75 -73 -75 -71 0 2 11 40
25 83 37 115 77 292 90 399 4 28 10 73 15 100 5 28 11 86 15 130 3 44 10 134
15 200 5 66 10 200 10 298 0 102 4 177 9 177 11 0 41 -57 41 -79 1 -14 2 -14
14 1 7 10 16 15 19 11 4 -3 7 -1 7 5 0 7 4 12 9 12 6 0 11 -19 13 -42 4 -42 8
-40 23 9 4 12 8 14 17 5 9 -9 15 -7 25 10 11 20 12 16 13 -39 0 -35 4 -63 10
-63 6 0 10 8 10 18 1 11 6 6 15 -13 11 -24 14 -26 15 -10 1 11 4 14 7 8 7 -18
23 -16 23 2 0 8 5 15 10 15 6 0 10 -11 10 -24 0 -17 5 -23 18 -22 12 1 18 -7
20 -26 3 -29 17 -37 25 -15 3 6 6 2 6 -10 1 -31 17 -37 25 -10 l6 22 20 -25
c11 -14 22 -41 26 -60 9 -56 18 -69 22 -32 2 17 7 32 12 32 4 0 18 -15 30 -32
l21 -33 -6 35 c-14 76 -43 152 -103 268 -28 52 -32 62 -32 74 0 7 8 -2 16 -19
23 -46 34 -41 35 15 0 35 2 42 9 27 4 -11 14 -33 21 -50 l12 -30 7 35 7 35 17
-40 c9 -22 21 -49 26 -60 5 -11 11 -27 14 -35 4 -8 4 9 2 38 -3 28 -3 52 -2
52 2 0 14 -17 27 -37 l23 -38 7 40 6 40 14 -32 c15 -37 26 -42 31 -16 2 12 14
-1 36 -40 37 -66 54 -74 41 -19 -13 57 -11 58 24 24 97 -94 26 33 -80 144 -72
75 -120 112 -198 153 -34 18 -66 41 -73 52 -12 19 -12 20 13 3 29 -19 32 -7
10 36 -20 39 -9 38 32 -2 34 -33 56 -31 34 3 -22 36 -5 32 43 -11 58 -49 77
-52 42 -6 -34 45 -33 52 5 26 37 -27 49 -19 26 19 -25 42 -21 46 14 17 34 -29
59 -36 39 -11 -23 28 -6 24 53 -12 31 -20 60 -34 63 -31 2 3 -7 19 -21 36 -29
35 -32 45 -7 38 9 -2 33 -7 52 -11 l35 -6 -30 21 c-78 55 -253 109 -355 110
-38 0 -64 6 -85 20 -28 18 -28 20 -7 20 28 0 28 14 0 34 l-22 16 26 0 c15 0
30 5 33 11 4 6 19 10 33 9 15 -1 38 -2 52 -1 22 1 20 4 -15 19 l-40 18 33 7
c17 4 32 10 32 14 0 27 -202 1 -298 -38 -54 -21 -78 -26 -90 -19 -16 9 -15 9
1 10 10 0 20 7 23 15 3 8 14 17 25 20 14 5 17 11 10 22 -11 21 -3 51 16 55 10
2 17 16 19 36 l4 33 -61 -33 c-116 -63 -197 -167 -209 -268 l-5 -45 -27 45
c-32 55 -116 137 -179 173 -62 36 -172 74 -239 81 l-55 6 33 -17 c40 -21 40
-30 1 -38 -41 -9 -19 -25 34 -25 21 0 36 -4 33 -9 -7 -10 16 -21 47 -22 19 0
18 -2 -5 -11 -32 -11 -37 -28 -9 -28 11 0 23 -4 26 -10 4 -6 -5 -10 -20 -10
-47 0 -16 -20 33 -21 26 -1 39 -3 30 -6 -32 -8 -19 -23 20 -24 20 0 30 -3 22
-6 -8 -3 -21 -13 -28 -21 -10 -14 -32 -16 -130 -14 -85 3 -135 -1 -182 -13
-58 -16 -93 -16 -380 -5 -173 6 -325 14 -337 17 -23 5 -23 6 10 46 92 118 293
290 448 385 152 93 352 174 516 211 212 47 241 50 468 46 145 -3 204 -8 305
-29z m-40 -640 l45 -15 -36 0 c-21 -1 -42 5 -49 14 -15 18 -16 18 40 1z m-70
-26 c0 -5 -2 -10 -4 -10 -3 0 -8 5 -11 10 -3 6 -1 10 4 10 6 0 11 -4 11 -10z
m-1080 -104 c0 -2 -14 -18 -30 -36 -17 -18 -29 -35 -26 -37 2 -3 35 12 71 33
58 32 66 34 56 16 -15 -27 -7 -28 30 -1 33 23 36 19 13 -17 -23 -35 -11 -40
30 -14 20 12 36 20 36 18 0 -2 -11 -19 -25 -38 -14 -18 -23 -36 -20 -38 2 -3
29 16 60 42 48 41 65 41 33 -1 -20 -25 10 -20 41 8 39 34 51 31 27 -5 -24 -37
-20 -51 9 -32 21 14 24 14 18 1 -3 -9 -23 -25 -44 -36 -118 -60 -219 -148
-311 -271 l-51 -68 -51 0 c-85 0 -740 30 -744 34 -8 9 82 219 132 306 l54 95
114 6 c62 4 187 12 276 18 90 7 176 10 190 7 15 -3 43 -2 62 3 44 11 50 12 50
7z m465 -85 c-3 -6 -11 -11 -17 -11 -6 0 -6 6 2 15 14 17 26 13 15 -4z m635 4
c7 -9 8 -15 2 -15 -5 0 -12 7 -16 15 -3 8 -4 15 -2 15 2 0 9 -7 16 -15z m-730
-19 c0 -3 -4 -8 -10 -11 -5 -3 -10 -1 -10 4 0 6 5 11 10 11 6 0 10 -2 10 -4z
m743 -166 c3 -11 1 -18 -4 -14 -5 3 -9 12 -9 20 0 20 7 17 13 -6z m-802 -120
c5 0 9 7 9 15 0 8 5 15 11 15 15 0 3 -30 -35 -95 -38 -62 -90 -212 -84 -241 3
-15 8 -12 23 16 16 29 20 32 23 15 2 -11 5 -27 8 -35 8 -24 24 9 24 52 0 28 4
36 14 32 10 -4 16 3 18 23 l4 28 13 -27 c16 -31 31 -28 32 5 0 21 1 21 12 -3
11 -23 12 -22 15 24 3 44 4 47 17 30 13 -17 14 -16 15 18 0 44 15 58 24 23 9
-34 23 -31 40 8 8 17 15 25 15 16 1 -9 8 -22 16 -29 13 -11 15 -6 15 39 0 28
5 51 10 51 6 0 10 -5 10 -11 0 -8 4 -9 13 0 11 9 17 2 28 -32 l14 -42 3 47 c2
29 8 48 18 52 7 3 14 1 14 -5 0 -6 8 -18 17 -27 15 -16 16 -15 10 17 -6 28 -4
32 9 27 13 -5 15 -1 11 21 -4 16 -4 22 -1 16 3 -7 12 -13 20 -13 8 0 14 -4 14
-10 0 -5 5 -10 11 -10 6 0 9 9 6 20 -3 11 -1 17 4 14 33 -20 -78 -770 -141
-954 -5 -14 -19 -59 -31 -100 -47 -159 -133 -342 -209 -445 -44 -59 -60 -74
-120 -108 -42 -23 -52 -25 -135 -20 -169 10 -296 -45 -414 -179 -13 -15 -27
-45 -30 -65 l-6 -38 -75 -2 -75 -3 -63 78 c-114 138 -270 396 -259 426 4 10
48 15 174 21 92 4 184 9 203 11 19 2 106 7 193 11 87 3 160 9 162 13 9 15
-101 22 -568 39 -160 5 -210 10 -217 21 -9 15 -61 195 -79 275 -6 28 -14 82
-17 121 l-7 71 94 7 c89 6 376 23 774 46 218 12 265 16 272 24 4 3 2 6 -3 7
-5 0 -25 2 -44 4 -19 2 -152 9 -295 15 -143 5 -357 15 -475 20 -118 5 -241 10
-272 10 l-58 0 0 73 c1 107 36 366 52 382 6 6 672 51 895 61 78 3 164 9 190
13 46 7 45 8 -44 16 -51 4 -93 10 -93 14 0 3 11 24 25 46 21 34 24 37 25 17 0
-31 17 -19 25 18 9 43 25 37 25 -10 0 -47 16 -53 25 -10 9 41 23 38 27 -7 2
-22 6 -31 10 -23 3 8 14 38 24 65 19 49 19 50 22 18 2 -18 7 -33 13 -33 5 0 9
4 9 9 0 5 8 26 17 47 l18 39 3 -42 c2 -24 7 -43 13 -43z m876 48 c-3 -8 -6 -5
-6 6 -1 11 2 17 5 13 3 -3 4 -12 1 -19z m-817 -8 c0 -5 -5 -10 -11 -10 -5 0
-7 5 -4 10 3 6 8 10 11 10 2 0 4 -4 4 -10z m-370 -104 c0 -15 -7 -26 -19 -29
-29 -7 -32 2 -7 28 27 29 26 29 26 1z m-1390 -2379 c5 -251 7 -280 23 -292 10
-7 15 -19 11 -29 -9 -22 -165 -24 -184 -1 -10 12 -8 18 9 32 21 18 21 23 19
258 -3 238 -3 240 -25 250 -13 5 -23 13 -23 16 0 22 72 49 125 46 l40 -2 5
-278z m-221 196 c16 -58 13 -78 -14 -93 -22 -12 -27 -10 -53 18 -32 34 -62 45
-113 40 l-34 -3 0 -95 0 -95 43 -3 c38 -3 44 0 60 28 13 23 23 30 42 28 24 -3
25 -6 28 -77 3 -77 -3 -91 -40 -91 -10 0 -18 6 -18 13 0 27 -37 48 -77 45
l-38 -3 -3 -79 c-3 -94 9 -116 69 -116 41 0 53 -9 43 -34 -6 -14 -25 -16 -143
-14 -127 3 -136 4 -139 23 -2 13 5 24 20 30 23 10 23 11 23 225 0 213 0 215
-22 225 -13 5 -23 15 -23 21 0 27 32 34 186 37 87 1 167 4 176 5 12 1 20 -9
27 -35z m3281 15 c51 -16 76 -35 94 -73 33 -69 8 -148 -58 -185 -30 -16 -46
-40 -27 -40 19 0 65 -59 87 -113 12 -28 31 -59 43 -68 42 -34 19 -69 -46 -69
-77 0 -103 24 -135 125 -30 98 -43 115 -84 115 l-34 0 0 -84 c0 -79 2 -86 26
-103 17 -13 23 -24 18 -36 -5 -14 -21 -17 -105 -17 -83 0 -100 3 -108 18 -8
13 -4 22 17 39 l27 21 1 184 c2 216 -1 236 -32 248 -16 6 -21 14 -17 29 5 18
15 21 102 23 118 4 185 -1 231 -14z m1910 2 c9 -5 17 -31 20 -67 l5 -58 43 -3
c40 -3 43 -5 40 -30 -3 -23 -9 -28 -43 -32 l-40 -5 -3 -118 c-4 -157 4 -169
88 -146 27 7 23 -39 -6 -66 -49 -46 -154 -30 -187 29 -6 12 -14 82 -17 161
l-5 140 -27 3 c-19 2 -28 -2 -33 -18 -4 -11 -17 -27 -29 -36 -31 -20 -73 -4
-82 31 -7 28 -13 30 -37 12 -15 -11 -17 -29 -15 -152 l3 -140 33 -10 c21 -6
32 -15 30 -25 -3 -12 -24 -16 -111 -18 -93 -2 -108 0 -114 14 -4 11 1 22 13
31 16 12 19 29 22 124 5 143 -2 177 -34 190 -36 13 -25 31 31 52 71 26 99 19
121 -31 1 -2 19 8 39 23 49 32 98 33 122 2 l17 -24 31 31 c26 27 52 74 69 129
6 19 32 22 56 7z m-4597 -134 c41 -17 81 -64 97 -112 8 -22 11 -68 8 -115 -4
-70 -8 -84 -35 -117 -44 -54 -88 -76 -153 -77 -101 0 -157 43 -187 144 -29
102 14 228 94 270 45 24 129 27 176 7z m311 -11 c6 -11 12 -22 13 -24 1 -1 17
9 37 24 67 51 151 15 132 -58 -15 -61 -97 -70 -112 -12 -6 26 -19 31 -44 15
-11 -7 -15 -38 -18 -132 -3 -140 6 -171 51 -176 20 -3 27 -8 25 -20 -3 -14
-19 -17 -111 -20 -93 -2 -108 0 -114 14 -4 11 1 22 13 31 16 12 19 30 22 123
5 141 -1 178 -34 191 -35 13 -26 31 27 51 56 22 99 19 113 -7z m494 5 c60 -37
92 -154 52 -194 -6 -6 -51 -11 -101 -12 -112 -1 -122 -9 -90 -69 19 -37 30
-46 59 -51 20 -4 56 -2 80 5 52 14 57 11 48 -23 -9 -37 -72 -66 -142 -66 -73
0 -127 29 -162 89 -22 37 -26 56 -25 122 0 65 5 85 27 123 52 89 173 125 254
76z m282 13 c0 -5 4 -14 9 -21 7 -11 16 -10 47 7 46 25 120 28 151 6 33 -23
43 -75 43 -219 0 -109 3 -132 17 -149 17 -18 17 -19 -2 -33 -25 -18 -109 -18
-124 0 -7 9 -12 69 -14 163 -2 162 -9 183 -54 183 -13 0 -33 -5 -44 -10 -17
-10 -19 -23 -19 -150 0 -130 1 -140 21 -154 13 -9 19 -21 16 -30 -5 -13 -24
-16 -97 -16 -100 0 -119 11 -81 49 19 19 21 33 21 156 l0 134 -30 23 c-35 25
-29 37 28 54 43 14 112 17 112 7z m611 -10 c68 -40 57 -153 -15 -153 -39 0
-59 32 -51 80 7 39 6 41 -15 38 -45 -6 -64 -50 -64 -141 1 -133 29 -166 134
-154 38 5 50 3 54 -10 14 -35 -62 -83 -131 -83 -110 1 -194 96 -193 219 1 125
87 221 197 221 34 0 66 -7 84 -17z m380 -6 c64 -43 91 -145 49 -187 -17 -17
-33 -20 -110 -20 -89 0 -90 0 -90 -25 0 -35 19 -71 46 -85 22 -12 81 -10 132
6 21 6 23 4 20 -22 -7 -66 -154 -100 -236 -54 -90 51 -124 184 -76 295 19 42
33 58 78 89 52 35 137 37 187 3z m1080 0 c64 -43 91 -145 48 -188 -17 -17 -31
-20 -97 -19 -106 3 -102 4 -102 -31 0 -21 10 -40 30 -61 28 -28 35 -30 78 -25
26 3 57 9 70 12 19 6 22 4 22 -19 0 -66 -155 -102 -239 -55 -58 32 -85 80 -89
161 -7 115 27 188 108 232 42 23 132 20 171 -7z m395 -3 c38 -28 48 -47 40
-77 -7 -31 -48 -46 -71 -27 -8 7 -15 27 -15 45 0 28 -4 33 -27 38 -44 8 -73
-8 -73 -41 0 -33 14 -48 85 -87 28 -16 65 -42 83 -59 27 -25 32 -37 32 -76 0
-83 -54 -122 -171 -122 -66 0 -93 9 -136 46 -47 40 -13 114 45 99 20 -5 36
-35 31 -59 -5 -27 3 -34 40 -34 57 0 71 8 71 40 0 25 -11 35 -87 82 -96 58
-127 99 -118 153 6 35 39 72 80 91 45 21 157 14 191 -12z m418 -7 c58 -45 71
-79 71 -183 0 -82 -3 -94 -28 -133 -34 -51 -76 -78 -135 -87 -160 -24 -266
138 -202 309 35 93 88 128 191 124 55 -2 73 -7 103 -30z m-1673 -724 c17 -32
13 -61 -12 -89 -25 -26 -24 -32 6 -56 36 -28 34 -80 -4 -119 -16 -16 -35 -29
-42 -29 -8 0 -7 4 4 13 42 32 40 99 -4 131 l-23 16 27 28 c43 45 30 124 -17
106 -9 -3 -16 -2 -16 4 0 12 17 20 46 21 13 1 26 -9 35 -26z m-1405 -5 c-23
-33 -20 -44 24 -92 48 -52 60 -95 36 -131 -21 -32 -74 -65 -101 -64 l-20 1 20
5 c11 3 32 17 48 31 41 39 37 82 -13 144 -46 58 -47 66 -19 102 25 32 47 35
25 4z m104 7 c13 -15 7 -45 -9 -45 -5 0 -11 14 -13 30 -5 33 3 38 22 15z
m1957 -32 c-25 -48 -56 -161 -55 -199 1 -34 -24 -75 -38 -61 -20 20 37 221 78
272 25 33 34 26 15 -12z m-756 -15 c-10 -18 -24 -58 -31 -88 -7 -30 -19 -67
-26 -81 -18 -36 -71 -79 -97 -79 -19 0 -19 2 7 15 39 20 52 40 72 105 27 85
66 159 86 160 4 0 -1 -15 -11 -32z m-153 -131 c12 -3 10 -5 -5 -6 -13 0 -23
-7 -24 -13 0 -10 -2 -10 -6 0 -7 17 -44 15 -71 -4 -12 -8 -22 -11 -22 -6 0 14
22 30 54 38 17 4 31 15 34 28 5 19 6 19 14 -6 5 -15 17 -29 26 -31z m-1210 17
c12 -8 22 -25 21 -37 0 -15 -2 -17 -6 -7 -20 57 -121 50 -142 -10 -11 -34 9
-69 42 -71 18 -1 18 -2 4 -6 -32 -8 -67 24 -67 60 0 67 91 111 148 71z m216
-30 c0 -10 -4 -34 -8 -51 -6 -27 -5 -33 9 -33 9 0 13 -4 10 -10 -8 -12 -42
-13 -49 -1 -3 4 -1 23 4 41 6 21 6 38 0 45 -6 7 -5 16 2 23 17 17 33 9 32 -14z
m680 10 c9 -8 16 -31 16 -50 0 -26 5 -37 22 -43 15 -5 18 -10 9 -16 -7 -4 -24
-2 -37 6 -19 10 -24 21 -24 50 0 20 -3 44 -6 53 -8 20 0 20 20 0z m81 5 c10
-15 -1 -23 -20 -15 -9 3 -13 10 -10 16 8 13 22 13 30 -1z m779 2 c3 -5 -3 -11
-14 -14 -23 -6 -42 -49 -33 -73 3 -9 15 -20 27 -24 18 -8 16 -9 -12 -9 -26 -1
-34 4 -42 24 -12 31 1 68 32 89 26 18 35 20 42 7z m240 -22 c-8 -13 -24 -1
-24 18 0 13 3 13 15 3 8 -7 12 -16 9 -21z m165 17 c9 -11 10 -20 1 -35 -6 -12
-9 -33 -8 -48 2 -20 -2 -28 -16 -31 -16 -4 -17 1 -11 47 6 44 5 51 -10 51 -14
0 -15 3 -5 15 16 19 34 19 49 1z m-1844 -18 c-4 -13 -9 -31 -12 -42 -3 -10 1
-22 8 -27 12 -8 11 -11 -1 -19 -24 -15 -35 -6 -37 31 -2 35 19 79 38 79 6 0 8
-9 4 -22z m89 9 c-3 -8 10 -20 31 -30 36 -17 45 -43 23 -65 -7 -7 -19 -12 -28
-11 -10 0 -11 2 -2 6 21 8 13 32 -18 48 -28 14 -39 43 -23 58 11 12 23 8 17
-6z m74 2 c-2 -6 -8 -10 -13 -10 -5 0 -11 4 -13 10 -2 6 4 11 13 11 9 0 15 -5
13 -11z m76 -2 c-3 -8 10 -20 31 -30 36 -17 45 -43 23 -65 -7 -7 -19 -12 -28
-12 -12 0 -13 2 -1 9 17 11 8 39 -16 48 -35 12 -43 24 -32 44 11 21 31 26 23
6z m74 2 c-2 -6 -8 -10 -13 -10 -5 0 -11 4 -13 10 -2 6 4 11 13 11 9 0 15 -5
13 -11z m78 -11 c-26 -42 -8 -93 30 -85 13 2 21 0 18 -4 -8 -13 -68 -11 -82 3
-19 19 -14 66 8 88 27 27 44 26 26 -2z m81 7 c7 -21 -25 -55 -51 -54 -20 0
-19 1 3 10 18 7 22 15 19 34 -6 28 18 36 29 10z m780 -3 c-14 -15 -16 -30 -8
-86 0 -4 14 -6 30 -4 17 2 28 1 25 -4 -8 -12 -68 -10 -82 4 -21 21 -15 75 10
92 30 21 45 20 25 -2z m80 1 c7 -18 -29 -53 -55 -53 -12 0 -10 4 7 16 15 11
21 23 18 35 -6 24 21 26 30 2z m170 -10 c-3 -16 -9 -36 -12 -45 -5 -13 -2 -18
11 -18 17 0 17 -1 2 -16 -9 -9 -24 -14 -32 -11 -13 5 -15 16 -10 49 8 61 11
68 30 68 13 0 15 -6 11 -27z m97 -3 c-20 -39 -15 -61 16 -77 l25 -13 -30 0
c-17 0 -36 5 -43 12 -19 19 -14 59 10 85 30 32 39 29 22 -7z m-554 -49 c0 -3
-7 -14 -14 -24 -12 -15 -15 -15 -26 -2 -10 12 -10 18 0 29 11 14 40 12 40 -3z
m-977 -21 c3 -11 2 -20 -3 -20 -12 0 -31 26 -23 33 11 12 21 7 26 -13z m150 0
c3 -11 2 -20 -3 -20 -12 0 -31 26 -23 33 11 12 21 7 26 -13z m313 -18 c-9 -9
-37 8 -31 18 5 8 11 7 21 -1 8 -6 12 -14 10 -17z"/>
<path d="M4640 4700 c0 -109 0 -110 24 -110 71 0 116 44 116 114 0 71 -35 106
-105 106 l-35 0 0 -110z"/>
<path d="M1989 4663 c-19 -22 -25 -233 -9 -274 16 -37 43 -53 69 -40 33 18 43
64 39 180 -3 90 -7 113 -22 130 -23 25 -58 27 -77 4z"/>
<path d="M2786 4658 c-21 -35 -28 -78 -15 -94 14 -17 71 -18 87 -2 15 15 16
72 2 99 -15 26 -56 25 -74 -3z"/>
<path d="M4056 4658 c-21 -29 -21 -97 -1 -104 8 -4 31 -3 50 0 34 7 35 8 35
54 0 27 -5 53 -12 60 -19 19 -55 14 -72 -10z"/>
<path d="M5136 4658 c-9 -12 -16 -42 -16 -65 l0 -43 38 0 c49 0 62 14 62 65 0
23 -5 46 -12 53 -19 19 -55 14 -72 -10z"/>
<path d="M5926 4658 c-18 -30 -26 -127 -17 -212 6 -54 12 -73 30 -87 32 -26
63 -11 79 37 19 54 11 223 -12 258 -21 33 -60 34 -80 4z"/>
</g>
</svg>
